<svg width="128.000000" height="128.000000" viewBox="0 0 128 128" fill="none" xmlns="http://www.w3.org/2000/svg" xmlns:xlink="http://www.w3.org/1999/xlink">
	<desc>
			Created with Pixso.
	</desc>
	<defs>
		<filter id="filter_111_3_dd" x="21.000000" y="20.000000" width="86.000000" height="95.000000" filterUnits="userSpaceOnUse" color-interpolation-filters="sRGB">
			<feFlood flood-opacity="0" result="BackgroundImageFix"/>
			<feColorMatrix in="SourceAlpha" type="matrix" values="0 0 0 0 0 0 0 0 0 0 0 0 0 0 0 0 0 0 127 0" result="hardAlpha"/>
			<feOffset dx="0" dy="4"/>
			<feGaussianBlur stdDeviation="5"/>
			<feComposite in2="hardAlpha" operator="out" k2="-1" k3="1"/>
			<feColorMatrix type="matrix" values="0 0 0 0 0 0 0 0 0 0.27451 0 0 0 0 0.72549 0 0 0 0.32 0"/>
			<feBlend mode="normal" in2="BackgroundImageFix" result="effect_dropShadow_1"/>
			<feBlend mode="normal" in="SourceGraphic" in2="effect_dropShadow_1" result="shape"/>
		</filter>
		<radialGradient gradientTransform="translate(53.5 44.5) rotate(62.8271) scale(168.609 211.132)" cx="0.000000" cy="0.000000" r="1.000000" id="paint_radial_111_3_0" gradientUnits="userSpaceOnUse">
			<stop stop-color="#FFFFFF"/>
			<stop offset="0.992366" stop-color="#2779FF"/>
		</radialGradient>
	</defs>
	<circle id="椭圆 33" cx="64.000000" cy="64.000000" r="64.000000" fill="#2779FF" fill-opacity="1.000000"/>
	<g filter="url(#filter_111_3_dd)">
		<path id="path" d="M63.99 80.25C75.91 80.25 86.33 85.42 92 93.13L86 96C81.39 90.48 73.26 86.81 63.99 86.81C54.73 86.81 46.6 90.48 41.99 96L36 93.13C41.66 85.42 52.08 80.25 63.99 80.25ZM63.99 31C72.98 31 80.26 38.35 80.26 47.41L80.26 57.26C80.26 66.33 72.98 73.68 63.99 73.68C55.01 73.68 47.73 66.33 47.73 57.26L47.73 47.41C47.73 38.35 55.01 31 63.99 31Z" fill="url(#paint_radial_111_3_0)" fill-opacity="1.000000" fill-rule="nonzero"/>
	</g>
</svg>
